<?xml version="1.0" standalone="no"?>
<!DOCTYPE svg PUBLIC "-//W3C//DTD SVG 20010904//EN"
 "http://www.w3.org/TR/2001/REC-SVG-20010904/DTD/svg10.dtd">
<svg version="1.0" xmlns="http://www.w3.org/2000/svg"
 width="512.000000pt" height="512.000000pt" viewBox="0 0 512.000000 512.000000"
 preserveAspectRatio="xMidYMid meet" fill="current" stroke="none">
<metadata>
Created by potrace 1.16, written by Peter Selinger 2001-2019
</metadata>
<g transform="translate(0.000000,512.000000) scale(0.100000,-0.100000)">
<path d="M2360 4300 c-222 -58 -415 -213 -515 -415 -63 -126 -85 -221 -85
-365 0 -146 22 -240 87 -370 40 -81 62 -109 148 -195 86 -86 114 -108 195
-148 130 -65 224 -87 370 -87 146 0 240 22 370 87 81 40 109 62 195 148 86 86
108 114 148 195 65 130 87 224 87 370 0 144 -22 239 -84 365 -101 203 -296
359 -520 415 -107 27 -290 27 -396 0z"/>
<path d="M945 3821 c-216 -62 -394 -243 -449 -457 -21 -81 -21 -247 0 -328 57
-220 248 -410 465 -461 83 -19 238 -19 314 0 197 51 359 190 436 374 l31 74
-41 86 c-64 138 -82 217 -88 374 l-6 137 -63 59 c-69 65 -173 122 -269 146
-81 21 -252 19 -330 -4z"/>
<path d="M4072 3820 c-18 -11 -41 -34 -52 -52 -19 -31 -20 -51 -20 -300 l0
-268 -267 0 c-250 0 -270 -1 -301 -20 -48 -30 -72 -75 -72 -140 0 -65 24 -110
72 -140 31 -19 51 -20 301 -20 l267 0 0 -267 c0 -250 1 -270 20 -301 30 -48
75 -72 140 -72 65 0 110 24 140 72 19 31 20 51 20 301 l0 267 268 0 c249 0
269 1 300 20 48 30 72 75 72 140 0 65 -24 110 -72 140 -31 19 -51 20 -300 20
l-268 0 0 268 c0 249 -1 269 -20 300 -30 48 -75 72 -140 72 -37 0 -66 -6 -88
-20z"/>
<path d="M1448 2381 c-145 -47 -269 -174 -312 -320 -14 -47 -16 -132 -16 -605
0 -532 1 -552 20 -584 11 -18 34 -41 52 -52 32 -20 53 -20 1368 -20 1315 0
1336 0 1368 20 18 11 41 34 52 52 19 32 20 52 20 585 0 513 -1 555 -19 612
-46 147 -172 272 -320 315 -48 14 -175 16 -1105 15 -991 0 -1054 -1 -1108 -18z"/>
<path d="M488 2221 c-145 -47 -269 -174 -312 -320 -13 -46 -16 -118 -16 -445
0 -373 1 -393 20 -424 11 -18 34 -41 52 -52 31 -19 51 -20 380 -20 l346 0 4
523 c5 566 5 568 63 696 14 29 25 55 25 57 0 2 -114 4 -252 3 -217 0 -261 -3
-310 -18z"/>
</g>
</svg>
