<?xml version="1.0" standalone="no"?>
<!DOCTYPE svg PUBLIC "-//W3C//DTD SVG 20010904//EN"
 "http://www.w3.org/TR/2001/REC-SVG-20010904/DTD/svg10.dtd">
<svg version="1.0" xmlns="http://www.w3.org/2000/svg"
 width="256.000000pt" height="256.000000pt" viewBox="0 0 256.000000 256.000000"
 preserveAspectRatio="xMidYMid meet" fill="current" stroke="none">

<g transform="translate(0.000000,256.000000) scale(0.100000,-0.100000)">
<path d="M876 2495 c-208 -43 -383 -140 -536 -295 -142 -144 -235 -321 -275
-519 -26 -126 -17 -345 19 -466 122 -411 465 -695 887 -734 476 -44 920 254
1062 714 28 92 41 155 31 155 -4 0 -46 -40 -93 -89 -75 -78 -92 -90 -138 -102
-29 -7 -55 -19 -58 -27 -3 -7 -21 -38 -42 -69 -108 -163 -269 -280 -460 -335
-111 -32 -295 -32 -406 0 -263 75 -461 264 -548 522 -57 171 -50 366 18 537
67 167 215 328 375 406 137 68 198 81 358 81 155 0 219 -13 345 -74 165 -79
281 -195 364 -362 l48 -97 84 85 83 84 -23 47 c-114 234 -362 437 -636 519
-77 23 -112 27 -240 30 -103 2 -172 -1 -219 -11z"/>
<path d="M2023 1728 l-253 -253 -133 132 c-82 82 -143 134 -160 139 -26 6 -42
-7 -235 -200 -114 -113 -212 -206 -217 -206 -5 0 -52 43 -106 95 -54 54 -104
95 -115 95 -32 -1 -56 -20 -199 -156 l-138 -131 27 -49 c56 -101 41 -104 181
36 l125 124 98 -97 c78 -77 105 -97 128 -97 23 0 63 35 236 207 l208 207 138
-137 c95 -94 146 -137 161 -137 23 0 271 230 504 467 118 121 128 143 82 188
-50 51 -58 47 -332 -227z"/>
<path d="M2036 839 c-71 -110 -254 -286 -363 -348 -16 -9 6 -35 162 -190 200
-201 251 -237 353 -247 92 -10 163 16 233 85 89 89 112 198 67 318 -19 51 -43
80 -211 251 -105 105 -193 192 -196 192 -3 0 -24 -28 -45 -61z"/>
</g>
</svg>
