<?xml version="1.0" standalone="no"?>
<!DOCTYPE svg PUBLIC "-//W3C//DTD SVG 20010904//EN"
 "http://www.w3.org/TR/2001/REC-SVG-20010904/DTD/svg10.dtd">
<svg version="1.0" xmlns="http://www.w3.org/2000/svg"
 width="512.000000pt" height="512.000000pt" viewBox="0 0 512.000000 512.000000"
 preserveAspectRatio="xMidYMid meet" fill="current" stroke="none">
<metadata>
Created by potrace 1.16, written by Peter Selinger 2001-2019
</metadata>
<g transform="translate(0.000000,512.000000) scale(0.100000,-0.100000)">
<path d="M668 5090 l-30 -30 4 -133 c3 -131 4 -135 41 -209 26 -53 54 -91 93
-127 31 -28 59 -51 64 -51 4 0 10 -145 13 -322 3 -239 9 -344 21 -404 24 -123
81 -287 138 -399 112 -220 191 -313 518 -608 146 -131 265 -242 265 -247 0 -5
-119 -116 -265 -247 -327 -295 -406 -388 -518 -608 -57 -112 -114 -276 -138
-399 -12 -60 -18 -165 -21 -404 -3 -177 -9 -322 -13 -322 -5 0 -33 -23 -64
-51 -39 -36 -67 -74 -93 -127 -37 -74 -38 -78 -41 -209 l-4 -133 30 -30 30
-30 1862 0 1862 0 30 30 30 30 -4 133 c-3 131 -4 135 -41 209 -26 53 -54 91
-93 127 -31 28 -59 51 -64 51 -4 0 -10 145 -13 323 -3 238 -9 343 -21 403 -24
123 -81 287 -138 399 -112 220 -191 313 -518 608 -146 131 -265 242 -265 247
0 5 119 116 265 247 327 295 406 388 518 608 57 112 114 276 138 399 12 60 18
165 21 404 3 177 9 322 13 322 5 0 33 23 64 51 39 36 67 74 93 127 37 74 38
78 41 209 l4 133 -30 30 -30 30 -1862 0 -1862 0 -30 -30z m3172 -782 c0 -212
-14 -375 -41 -482 -27 -111 -124 -304 -198 -396 -36 -46 -202 -203 -425 -404
-393 -354 -406 -369 -406 -466 0 -97 13 -112 406 -466 223 -201 389 -358 425
-404 74 -92 171 -285 198 -396 27 -107 41 -270 41 -481 l0 -173 -130 0 -130 0
-471 627 c-258 346 -480 633 -492 640 -28 16 -86 16 -114 0 -12 -7 -234 -294
-492 -640 l-471 -627 -130 0 -130 0 0 173 c0 211 14 374 41 481 27 111 124
304 198 396 36 46 202 203 425 404 393 354 406 369 406 466 0 97 -13 112 -406
466 -223 201 -389 358 -425 404 -74 92 -171 285 -198 396 -27 107 -41 270 -41
482 l0 172 1280 0 1280 0 0 -172z"/>
<path d="M1770 3617 c-14 -7 -33 -29 -44 -51 -37 -75 -36 -75 376 -456 205
-189 387 -351 403 -362 38 -23 72 -23 110 0 17 11 198 174 403 363 412 380
412 381 376 455 -11 22 -30 44 -44 51 -36 18 -1544 18 -1580 0z"/>
</g>
</svg>
