<?xml version="1.0" standalone="no"?>
<!DOCTYPE svg PUBLIC "-//W3C//DTD SVG 20010904//EN"
 "http://www.w3.org/TR/2001/REC-SVG-20010904/DTD/svg10.dtd">
<svg version="1.0" xmlns="http://www.w3.org/2000/svg"
 width="512.000000pt" height="512.000000pt" viewBox="0 0 512.000000 512.000000"
 preserveAspectRatio="xMidYMid meet" fill="current" stroke="none">
<metadata>
Created by potrace 1.16, written by Peter Selinger 2001-2019
</metadata>
<g transform="translate(0.000000,512.000000) scale(0.100000,-0.100000)">
<path d="M1234 4320 c-102 -15 -196 -84 -246 -180 -19 -38 -23 -60 -23 -140 0
-83 4 -101 27 -145 32 -60 87 -115 148 -147 l45 -23 1695 0 1695 0 47 23 c60
30 120 90 150 150 33 68 37 187 9 263 -39 103 -137 180 -257 199 -70 12 -3212
11 -3290 0z"/>
<path d="M230 4311 c-97 -31 -175 -105 -210 -197 -18 -49 -21 -74 -18 -145 4
-77 8 -92 37 -137 66 -104 153 -152 273 -152 148 0 256 71 314 206 27 64 27
68 16 144 -13 93 -36 141 -92 197 -63 64 -120 87 -215 90 -44 1 -91 -1 -105
-6z"/>
<path d="M1227 2880 c-102 -18 -189 -83 -237 -176 -22 -42 -25 -62 -25 -144 0
-83 4 -101 27 -145 31 -60 87 -114 148 -146 l45 -24 1855 0 1855 0 47 24 c57
29 119 91 150 151 19 38 23 60 23 140 0 79 -4 103 -23 142 -33 66 -104 133
-171 160 l-56 23 -1795 1 c-987 1 -1816 -2 -1843 -6z"/>
<path d="M190 2854 c-68 -31 -123 -84 -158 -149 -39 -73 -39 -217 0 -290 32
-60 87 -115 148 -146 66 -33 209 -39 273 -11 111 49 189 164 196 289 3 64 0
80 -27 137 -60 129 -165 196 -305 196 -56 0 -84 -6 -127 -26z"/>
<path d="M1229 1440 c-105 -18 -190 -81 -239 -176 -22 -42 -25 -62 -25 -144 0
-83 4 -101 27 -145 31 -60 87 -114 148 -146 l45 -24 1135 0 1135 0 49 25 c66
33 140 117 161 181 38 115 10 251 -69 333 -53 54 -103 81 -181 95 -69 13
-2111 14 -2186 1z"/>
<path d="M185 1411 c-114 -55 -176 -146 -183 -270 -3 -61 0 -87 17 -132 27
-72 84 -136 152 -174 46 -25 68 -30 145 -33 76 -4 99 -1 137 16 111 49 188
163 195 289 4 64 1 80 -26 137 -61 130 -164 196 -305 196 -59 0 -83 -5 -132
-29z"/>
</g>
</svg>
