<?xml version="1.0" standalone="no"?>
<!DOCTYPE svg PUBLIC "-//W3C//DTD SVG 20010904//EN"
 "http://www.w3.org/TR/2001/REC-SVG-20010904/DTD/svg10.dtd">
<svg version="1.0" xmlns="http://www.w3.org/2000/svg"
 width="512.000000pt" height="512.000000pt" viewBox="0 0 512.000000 512.000000"
 preserveAspectRatio="xMidYMid meet">
<metadata>
Created by potrace 1.16, written by Peter Selinger 2001-2019
</metadata>
<g transform="translate(0.000000,512.000000) scale(0.100000,-0.100000)"
fill="#000000" stroke="none">
<path d="M1270 4684 c-100 -21 -186 -69 -261 -143 -106 -106 -159 -233 -159
-381 0 -148 52 -272 160 -381 142 -143 351 -193 543 -128 96 32 143 66 179
129 36 64 76 119 129 175 46 49 59 95 59 205 0 155 -41 257 -148 371 -130 139
-312 194 -502 153z"/>
<path d="M3626 4688 c-181 -34 -353 -191 -407 -370 -17 -56 -20 -88 -17 -176
4 -121 8 -130 89 -225 30 -37 72 -95 92 -129 20 -35 52 -72 70 -84 208 -131
483 -100 657 75 75 75 123 159 145 252 70 299 -113 591 -410 654 -78 16 -146
17 -219 3z"/>
<path d="M2425 4046 c-287 -57 -499 -246 -585 -521 -30 -97 -38 -264 -17 -367
59 -283 273 -508 551 -578 107 -27 265 -27 372 0 223 56 424 229 509 438 82
202 70 448 -31 642 -94 180 -282 329 -476 375 -92 22 -240 27 -323 11z"/>
<path d="M747 3475 c-108 -40 -212 -83 -231 -94 -54 -34 -135 -127 -164 -188
l-27 -58 -3 -822 -2 -823 374 0 374 0 4 253 c5 279 10 304 76 432 43 81 131
179 205 228 29 19 149 87 267 152 118 64 216 118 218 120 2 2 -18 32 -43 67
-84 113 -149 263 -175 403 -7 34 -10 116 -8 183 1 67 1 122 -2 122 -3 0 -39
-7 -80 -16 -161 -34 -354 -3 -507 82 -34 19 -65 34 -70 34 -4 -1 -97 -34 -206
-75z"/>
<path d="M4096 3515 c-146 -83 -345 -115 -506 -81 -41 9 -77 16 -80 16 -3 0
-4 -60 -2 -132 3 -116 0 -146 -22 -232 -32 -123 -84 -237 -154 -334 -29 -41
-52 -76 -50 -77 2 -1 113 -63 248 -136 227 -124 251 -140 326 -214 55 -55 91
-102 116 -150 66 -129 71 -153 76 -432 l4 -253 374 0 374 0 -2 823 -3 822 -27
58 c-31 66 -114 158 -173 192 -37 21 -416 165 -433 165 -4 0 -34 -16 -66 -35z"/>
<path d="M1690 2366 c-265 -145 -313 -184 -367 -294 l-38 -76 -3 -838 -2 -838
591 0 c558 0 590 1 585 18 -3 9 -118 490 -256 1067 -138 578 -253 1058 -256
1068 -3 9 -11 17 -17 16 -7 0 -113 -56 -237 -123z"/>
<path d="M3176 2473 c-3 -10 -118 -490 -256 -1068 -138 -577 -253 -1058 -256
-1067 -5 -17 27 -18 585 -18 l591 0 -2 838 -3 838 -38 76 c-54 110 -102 149
-369 294 -125 68 -232 124 -237 124 -5 0 -12 -8 -15 -17z"/>
<path d="M2497 2229 c-46 -27 -47 -40 -47 -536 l0 -468 52 -223 c28 -122 55
-222 58 -222 3 0 30 100 58 223 l52 222 0 468 c0 500 -1 511 -49 537 -25 13
-101 13 -124 -1z"/>
</g>
</svg>
