<?xml version="1.0" standalone="no"?>
<!DOCTYPE svg PUBLIC "-//W3C//DTD SVG 20010904//EN"
 "http://www.w3.org/TR/2001/REC-SVG-20010904/DTD/svg10.dtd">
<svg version="1.0" xmlns="http://www.w3.org/2000/svg"
 width="512.000000pt" height="512.000000pt" viewBox="0 0 512.000000 512.000000"
 preserveAspectRatio="xMidYMid meet" fill="current" stroke="none">
<g transform="translate(0.000000,512.000000) scale(0.100000,-0.100000)">
<path d="M1222 4665 c-125 -43 -211 -110 -284 -220 -54 -83 -82 -179 -82 -285
0 -401 424 -656 778 -467 35 19 66 43 75 60 39 72 93 149 139 200 59 65 67 93
66 222 -2 236 -161 438 -394 500 -87 23 -212 19 -298 -10z"/>
<path d="M3600 4676 c-101 -29 -173 -72 -248 -147 -118 -120 -174 -301 -143
-461 11 -51 21 -71 58 -113 40 -43 93 -118 145 -206 9 -14 43 -39 75 -57 243
-129 545 -50 695 182 109 169 109 403 0 572 -74 114 -187 195 -317 229 -70 18
-202 18 -265 1z"/>
<path d="M2384 4031 c-245 -60 -443 -240 -528 -478 -91 -258 -31 -548 156
-748 212 -227 510 -301 801 -200 105 36 174 82 272 180 130 130 190 250 215
436 34 247 -82 523 -283 675 -81 61 -206 120 -296 139 -95 20 -247 18 -337 -4z"/>
<path d="M755 3471 c-99 -37 -198 -77 -220 -88 -66 -35 -135 -111 -174 -193
l-36 -75 -3 -813 -3 -812 373 2 373 3 5 260 c5 238 8 266 29 325 32 91 74 161
139 231 72 78 93 92 362 239 124 68 226 124 228 125 1 1 -27 46 -62 99 -115
173 -160 320 -161 532 l0 140 -55 -14 c-30 -7 -104 -14 -165 -14 -133 0 -230
23 -343 82 -43 22 -84 40 -92 39 -8 0 -96 -31 -195 -68z"/>
<path d="M4073 3498 c-106 -57 -205 -80 -338 -80 -60 0 -135 7 -165 14 l-55
14 0 -140 c-1 -212 -46 -359 -161 -532 -35 -53 -63 -98 -62 -99 2 -1 89 -48
193 -105 269 -146 325 -182 392 -254 69 -73 111 -143 144 -236 21 -59 24 -87
29 -325 l5 -260 373 -3 372 -2 0 787 c0 847 0 834 -53 938 -32 64 -108 140
-171 172 -65 33 -393 153 -414 152 -9 -1 -49 -19 -89 -41z"/>
<path d="M1685 2354 c-290 -158 -339 -202 -386 -355 -18 -57 -19 -105 -19
-870 l0 -809 586 0 586 0 -5 22 c-141 611 -514 2138 -521 2138 -6 0 -114 -57
-241 -126z"/>
<path d="M2931 1423 c-139 -582 -255 -1068 -258 -1080 l-5 -23 586 0 586 0 0
803 c0 874 1 863 -57 969 -47 86 -112 135 -346 262 -121 65 -227 120 -236 123
-15 4 -50 -133 -270 -1054z"/>
<path d="M2502 2224 c-52 -36 -52 -38 -52 -531 l0 -458 52 -223 c29 -122 55
-222 58 -222 3 0 29 100 58 223 l52 222 0 458 c0 493 0 495 -52 531 -12 9 -38
16 -58 16 -20 0 -46 -7 -58 -16z"/>
</g>
</svg>
